<svg width="25" height="25" viewBox="0 0 25 25" fill="none" xmlns="http://www.w3.org/2000/svg">
<path d="M8.90154 0.00169899C7.31326 -0.010198 5.72312 0.0384516 4.13548 0.209061C3.77952 0.247233 3.30682 0.299638 2.97971 0.695969C2.79181 0.923607 2.72149 1.1858 2.66843 1.40074C2.58999 1.71906 2.52968 1.97038 2.49275 2.30171C2.17167 2.44402 1.87192 2.66124 1.68402 3.01173C1.5236 3.31104 1.47685 3.62189 1.43253 3.88711C1.12 5.75999 0 13.4786 0 17.869C0 21.0246 0.626399 22.7043 1.31973 23.6069C1.66639 24.0581 2.02916 24.3093 2.31646 24.4435C2.46011 24.5106 2.58473 24.5488 2.67952 24.5708C2.77431 24.5929 2.8712 24.6025 2.84842 24.5997C8.31534 25.2698 17.4649 24.9677 21.3745 24.6371C21.3997 24.6352 21.4245 24.6302 21.4485 24.622C22.904 24.6113 23.8498 24.1702 24.3524 23.3299C24.8612 22.4794 24.9158 21.3374 24.8609 19.9642C24.7512 17.2179 24.1501 13.4653 24.9935 9.13023C25.0039 9.07653 25.0018 9.02094 24.9874 8.96829C24.973 8.91565 24.9467 8.86755 24.9109 8.8282C24.875 8.78885 24.8306 8.75944 24.7816 8.74255C24.7326 8.72565 24.6805 8.72177 24.6298 8.73125C24.6298 8.73125 24.4026 8.77359 24.1163 8.80868C23.8837 8.8372 23.628 8.84996 23.4358 8.84346C23.4696 8.62332 23.4989 8.42031 23.535 8.19054C23.5505 8.09291 23.5117 7.978 23.4691 7.92149C23.4265 7.86498 23.3905 7.84504 23.3649 7.83093C23.3137 7.80272 23.2907 7.80071 23.27 7.79615C23.2287 7.78704 23.2025 7.78525 23.1714 7.78303C23.109 7.77858 23.0355 7.77731 22.9445 7.77647C22.7627 7.77479 22.5168 7.77606 22.2412 7.77384C21.782 7.77014 21.2766 7.73361 20.8512 7.67738C21.178 6.25359 21.5293 4.85286 21.8621 3.57738C21.8943 3.49956 21.8976 3.41162 21.8714 3.33131C21.8679 3.32082 21.864 3.31053 21.8596 3.30046C21.857 3.29403 21.8541 3.28768 21.851 3.28143C21.8504 3.28012 21.8498 3.2788 21.8492 3.2775C21.8448 3.26897 21.8401 3.26065 21.835 3.25256C21.8065 3.20605 21.7675 3.16781 21.7217 3.14124C21.6759 3.11467 21.6246 3.10061 21.5724 3.10032C21.4902 3.08126 20.9005 2.94805 20.1898 2.9402C20.2488 2.68787 20.3061 2.43669 20.3661 2.1836C20.3767 2.13869 20.3786 2.09192 20.3714 2.04623C20.3643 2.00054 20.3483 1.95691 20.3246 1.91809C20.3009 1.87927 20.2699 1.84609 20.2335 1.82064C20.1972 1.79518 20.1563 1.77801 20.1134 1.77018C19.988 1.74713 19.8121 1.73715 19.5031 1.72031C19.4779 1.71893 19.4293 1.71776 19.4026 1.71637C19.4765 1.37412 19.5783 0.902018 19.5783 0.902018C19.5885 0.854543 19.5889 0.80528 19.5794 0.757639C19.5699 0.709999 19.5508 0.66512 19.5235 0.62611C19.4961 0.5871 19.4611 0.554893 19.4208 0.531717C19.3806 0.508541 19.3361 0.494951 19.2905 0.491888C19.2905 0.491888 15.3991 0.238219 13.6553 0.158533C12.0761 0.0862965 10.4898 0.0135984 8.90154 0.00169899ZM8.89722 0.674314C10.4705 0.686126 12.0491 0.757601 13.6281 0.829835C15.2404 0.903508 18.4223 1.11056 18.8793 1.14022C18.834 1.35077 18.7953 1.53036 18.761 1.68947C18.5903 1.68277 18.4741 1.67618 18.2746 1.66978C17.2668 1.63749 15.9057 1.61113 14.3475 1.60744C11.231 1.60008 7.32651 1.68437 3.88213 2.00248C3.65877 2.02312 3.41186 2.05122 3.16155 2.0996C3.19152 1.93864 3.22834 1.7781 3.27929 1.57135C3.32659 1.37976 3.38094 1.22775 3.45373 1.13957C3.58361 0.982203 3.86503 0.913483 4.19835 0.877739C5.75598 0.710354 7.32395 0.662502 8.89722 0.674314ZM14.3463 2.2794C15.8985 2.28307 17.2543 2.30966 18.2555 2.34174C18.7561 2.35778 19.168 2.37513 19.4705 2.39161C19.5811 2.39764 19.5841 2.40046 19.6665 2.40671C18.5307 7.22975 17.5596 11.9606 17.5596 16.9805C17.5596 20.4485 18.433 22.4713 19.4292 23.555C16.9551 23.7752 9.169 23.7946 5.69005 23.6692C2.22316 23.5442 1.55437 22.8588 0.835848 20.5745C0.710856 19.8426 0.631201 18.9578 0.631201 17.869C0.631201 13.6018 1.74845 5.83486 2.05387 4.00458C2.09792 3.74097 2.1431 3.51146 2.23263 3.34443C2.35647 3.11342 2.58376 2.96084 2.89588 2.85555C3.20801 2.75027 3.58725 2.70413 3.93699 2.67181C7.34998 2.3566 11.2417 2.27207 14.3463 2.2794ZM20.2712 3.61282C20.6419 3.62261 20.9529 3.67032 21.1767 3.71059C20.4394 6.54073 19.5989 9.84981 19.2344 13.0668C18.8553 16.4123 18.9817 19.6471 20.3458 22.0674C20.7565 22.7962 21.6141 23.1736 22.354 22.8673C22.7239 22.7142 23.0432 22.372 23.2108 21.8738C23.3784 21.3756 23.4094 20.7279 23.2663 19.8973C22.5928 15.9893 22.7465 13.4742 23.3335 9.51673C23.6097 9.53693 23.9193 9.50904 24.1884 9.47605C24.2604 9.46723 24.2551 9.46541 24.3179 9.45636C23.5792 13.7256 24.1276 17.4226 24.2304 19.9931C24.2836 21.3261 24.1958 22.3404 23.8198 22.969C23.4438 23.5976 22.7745 23.954 21.3992 23.954C20.6032 23.954 18.1908 22.6084 18.1908 16.9805C18.1908 12.4101 19.0105 8.05928 20.0326 3.61544C20.113 3.61391 20.1955 3.61082 20.2712 3.61282ZM12.293 3.8543C7.72606 3.86116 3.73789 4.20734 3.73789 4.20734C3.65444 4.21457 3.57709 4.25679 3.52288 4.32472C3.46866 4.39265 3.44201 4.48073 3.4488 4.56957C3.45558 4.65842 3.49524 4.74076 3.55905 4.79847C3.62286 4.85619 3.7056 4.88456 3.78906 4.87733C3.78906 4.87733 10.8588 4.267 16.8883 4.65685C16.9297 4.65953 16.9712 4.6535 17.0105 4.6391C17.0497 4.62471 17.0858 4.60223 17.1169 4.57295C17.148 4.54367 17.1733 4.50816 17.1915 4.46846C17.2096 4.42875 17.2203 4.38563 17.2228 4.34154C17.2253 4.29746 17.2196 4.25328 17.2061 4.21153C17.1926 4.16978 17.1714 4.13128 17.1439 4.09822C17.1164 4.06516 17.0831 4.03819 17.0458 4.01886C17.0085 3.99953 16.968 3.98821 16.9265 3.98555C15.4018 3.88696 13.8153 3.85202 12.293 3.8543ZM13.6935 6.44764C13.4022 6.45045 13.1207 6.45551 12.8564 6.46208C11.7991 6.48837 11.0201 6.53623 11.0201 6.53623C10.9501 6.54057 10.8834 6.56964 10.8306 6.61883C10.7778 6.66803 10.7419 6.73456 10.7286 6.8079C10.3015 9.16622 10.3821 10.3947 10.3821 10.3947C10.3878 10.4769 10.4217 10.554 10.4772 10.6113C10.5328 10.6687 10.6062 10.7023 10.6836 10.7058C10.6836 10.7058 14.0642 10.8584 16.0081 10.7051C16.0858 10.699 16.1586 10.6625 16.2126 10.6027C16.2665 10.5428 16.2977 10.4639 16.3003 10.381C16.3529 8.66078 16.6504 6.91355 16.6504 6.91355C16.6584 6.86715 16.6571 6.81948 16.6466 6.77364C16.6362 6.7278 16.6168 6.68482 16.5897 6.64749C16.5626 6.61017 16.5284 6.57933 16.4894 6.557C16.4503 6.53466 16.4073 6.52133 16.3631 6.51786C15.5279 6.45259 14.5674 6.43924 13.6935 6.44764ZM6.70035 6.56445C6.12844 6.55636 5.5742 6.56151 5.08967 6.57232C4.12062 6.59395 3.42969 6.63729 3.42969 6.63729C3.35964 6.64163 3.29294 6.67069 3.24014 6.71989C3.18734 6.76909 3.15145 6.83562 3.13813 6.90896C2.71105 9.26727 2.79171 10.4958 2.79171 10.4958C2.79736 10.5778 2.83103 10.6547 2.88635 10.712C2.94166 10.7693 3.01479 10.803 3.0919 10.8068C3.0919 10.8068 6.1682 10.9589 8.10945 10.8062C8.18903 10.8 8.26347 10.762 8.3178 10.6998C8.37212 10.6376 8.40229 10.5558 8.40225 10.4709C8.40225 9.13446 8.70614 7.0238 8.70614 7.0238C8.7128 6.97797 8.71049 6.93118 8.69933 6.88635C8.68818 6.84153 8.66844 6.79964 8.64134 6.76334C8.61424 6.72704 8.58038 6.69709 8.54189 6.6754C8.50339 6.65371 8.46109 6.64073 8.41766 6.63729C7.86183 6.59386 7.27225 6.57254 6.70035 6.56445ZM20.699 8.33621C21.1899 8.40754 21.7506 8.44188 22.2363 8.4458C22.4857 8.44782 22.692 8.44759 22.8601 8.44843C22.1552 12.9921 21.9075 15.7352 22.6456 20.0181C22.775 20.7693 22.7328 21.3019 22.6166 21.6474C22.5004 21.9929 22.3254 22.1578 22.1253 22.2406C21.754 22.3944 21.2265 22.2 20.9498 21.8128C21.1037 21.7855 21.2471 21.7265 21.3702 21.6494C21.5648 21.5276 21.6922 21.3117 21.7444 21.0903C21.7965 20.8689 21.7967 20.633 21.7783 20.3619C21.7414 19.8197 21.6204 19.127 21.5157 18.224C21.3063 16.4179 21.1532 13.786 21.8473 10.1165C21.8568 10.0663 21.8553 10.0144 21.8431 9.9649C21.8308 9.91537 21.8081 9.86947 21.7766 9.83072C21.7452 9.79197 21.7058 9.76139 21.6615 9.74132C21.6173 9.72125 21.5693 9.71221 21.5212 9.71491C21.011 9.74442 20.6424 9.70596 20.4191 9.67685C20.5084 9.22802 20.6013 8.78046 20.699 8.33621ZM20.2964 10.3219C20.458 10.3324 20.758 10.354 21.173 10.3665C20.5493 13.9077 20.6832 16.528 20.8894 18.3067C20.9964 19.2296 21.1161 19.9358 21.1483 20.4105C21.1644 20.6478 21.1562 20.8256 21.1323 20.9269C21.1084 21.0282 21.0922 21.0444 21.0503 21.0706C20.9355 21.1425 20.8061 21.1716 20.7224 21.1526C20.6414 21.1343 20.5644 21.0932 20.4814 20.8783C20.4786 20.8712 20.4761 20.8675 20.4733 20.86C20.4725 20.858 20.4717 20.856 20.4709 20.8541C19.6135 18.7389 19.5366 16.0127 19.8613 13.1469C19.9671 12.2129 20.1202 11.2662 20.2964 10.3219ZM15.7313 12.4447C15.7239 12.4447 15.7165 12.4449 15.7091 12.4454C8.81283 12.7563 2.83856 12.6213 2.83856 12.6213C2.7961 12.6184 2.75354 12.6248 2.71344 12.6399C2.67334 12.655 2.63652 12.6786 2.6052 12.7092C2.57388 12.7399 2.5487 12.777 2.53118 12.8182C2.51366 12.8595 2.50416 12.9041 2.50324 12.9494C2.50233 12.9947 2.51002 13.0397 2.52586 13.0817C2.5417 13.1237 2.56535 13.1619 2.59541 13.194C2.62546 13.226 2.66129 13.2513 2.70074 13.2682C2.7402 13.2852 2.78246 13.2935 2.82499 13.2926C2.82499 13.2926 8.81684 13.4287 15.7363 13.1167C15.8193 13.115 15.8984 13.0784 15.9563 13.0151C16.0142 12.9517 16.0463 12.8666 16.0457 12.7781C16.045 12.6897 16.0117 12.6051 15.9528 12.5427C15.894 12.4803 15.8144 12.4451 15.7313 12.4447ZM15.5908 14.7021C15.5834 14.702 15.576 14.7023 15.5686 14.7028C8.67607 15.0135 2.53652 14.7539 2.53652 14.7539C2.49449 14.7511 2.45234 14.7572 2.41257 14.7719C2.37279 14.7866 2.33619 14.8097 2.30491 14.8397C2.27364 14.8698 2.24832 14.9061 2.23046 14.9467C2.21259 14.9873 2.20254 15.0313 2.2009 15.0761C2.19925 15.1209 2.20605 15.1656 2.22088 15.2076C2.23571 15.2496 2.25828 15.2879 2.28726 15.3205C2.31623 15.353 2.35104 15.379 2.38961 15.397C2.42818 15.415 2.46975 15.4246 2.51186 15.4252C2.51186 15.4252 8.67251 15.6862 15.5957 15.3741C15.6788 15.3723 15.7578 15.3358 15.8158 15.2724C15.8737 15.209 15.9058 15.1239 15.9052 15.0355C15.9045 14.9471 15.8711 14.8625 15.8123 14.8001C15.7534 14.7376 15.6739 14.7025 15.5908 14.7021ZM2.3707 17.0467C2.28952 17.0498 2.21258 17.0861 2.15588 17.148C2.09919 17.21 2.06711 17.2928 2.06631 17.3793C2.06552 17.4657 2.09608 17.5492 2.15162 17.6123C2.20717 17.6754 2.28343 17.7133 2.36454 17.718C2.36454 17.718 4.85805 17.8762 7.97569 17.7712C8.01715 17.7698 8.05794 17.7598 8.09574 17.7416C8.13355 17.7235 8.16763 17.6976 8.19602 17.6654C8.22442 17.6332 8.24659 17.5954 8.26126 17.5541C8.27593 17.5128 8.28281 17.4688 8.28152 17.4247C8.28022 17.3806 8.27077 17.3372 8.25371 17.2969C8.23665 17.2567 8.21231 17.2204 8.18207 17.1902C8.15184 17.16 8.11632 17.1364 8.07752 17.1208C8.03872 17.1052 7.99742 17.0978 7.95597 17.0992C4.86891 17.2032 2.40214 17.0474 2.40214 17.0474C2.39168 17.0466 2.38118 17.0464 2.3707 17.0467ZM10.0203 17.0986C9.9387 17.0996 9.86062 17.1342 9.80249 17.1952C9.74435 17.2562 9.71067 17.3388 9.70851 17.4257C9.70636 17.5126 9.7359 17.5969 9.79093 17.6611C9.84597 17.7253 9.92222 17.7643 10.0037 17.7699C10.0037 17.7699 12.9078 18.0077 15.8281 17.7699C15.8699 17.7672 15.9108 17.7557 15.9483 17.736C15.9859 17.7163 16.0194 17.6889 16.0469 17.6553C16.0745 17.6217 16.0954 17.5826 16.1086 17.5403C16.1218 17.498 16.1269 17.4533 16.1237 17.4089C16.1206 17.3644 16.1091 17.3211 16.09 17.2814C16.071 17.2418 16.0447 17.2065 16.0127 17.1778C15.9807 17.149 15.9436 17.1273 15.9037 17.1139C15.8638 17.1006 15.8217 17.0958 15.78 17.0999C12.9236 17.3325 10.0518 17.0999 10.0518 17.0999C10.0413 17.0989 10.0308 17.0985 10.0203 17.0986ZM10.2767 19.2011C10.1935 19.2028 10.1144 19.2395 10.0565 19.3031C9.99852 19.3667 9.96653 19.4521 9.96742 19.5406C9.96831 19.6292 10.002 19.7138 10.0612 19.7761C10.1204 19.8383 10.2003 19.8732 10.2835 19.873C10.2835 19.873 14.3207 20.0453 15.9101 19.9793C15.9522 19.9787 15.9938 19.9691 16.0323 19.9511C16.0709 19.9331 16.1057 19.9071 16.1347 19.8746C16.1637 19.842 16.1862 19.8036 16.2011 19.7617C16.2159 19.7197 16.2227 19.675 16.221 19.6302C16.2194 19.5854 16.2093 19.5414 16.1915 19.5008C16.1736 19.4602 16.1483 19.4238 16.117 19.3938C16.0858 19.3638 16.0491 19.3407 16.0094 19.326C15.9696 19.3113 15.9275 19.3052 15.8854 19.308C14.3826 19.3704 10.3082 19.2011 10.3082 19.2011C10.2977 19.2005 10.2872 19.2005 10.2767 19.2011ZM8.07432 19.2555C6.55343 19.3187 2.52665 19.2883 2.52665 19.2883C2.4849 19.2875 2.4434 19.2954 2.40455 19.3118C2.36571 19.3281 2.33029 19.3525 2.30036 19.3835C2.27043 19.4145 2.24657 19.4515 2.23018 19.4924C2.21378 19.5333 2.20517 19.5772 2.20484 19.6217C2.20452 19.6661 2.21248 19.7102 2.22828 19.7514C2.24407 19.7925 2.26738 19.8299 2.29685 19.8614C2.32633 19.8929 2.36138 19.9179 2.39998 19.9349C2.43858 19.9518 2.47996 19.9605 2.52172 19.9603C2.52172 19.9603 6.52699 19.9927 8.09836 19.9275C8.1398 19.9258 8.18053 19.9155 8.21822 19.897C8.2559 19.8786 8.28981 19.8524 8.318 19.82C8.34619 19.7877 8.36811 19.7497 8.38251 19.7083C8.39692 19.6669 8.40352 19.6228 8.40194 19.5787C8.40036 19.5346 8.39063 19.4912 8.37332 19.4511C8.356 19.411 8.33142 19.3749 8.301 19.3449C8.27058 19.3149 8.2349 19.2915 8.19601 19.2762C8.15711 19.2609 8.11576 19.2539 8.07432 19.2555ZM2.98464 21.2294C2.90337 21.2293 2.8252 21.2626 2.76639 21.3223C2.70758 21.382 2.67268 21.4636 2.66894 21.55C2.66521 21.6364 2.69293 21.721 2.74635 21.7863C2.79976 21.8515 2.87474 21.8922 2.95567 21.9001C2.95567 21.9001 6.17676 22.2326 8.41766 22.0576C8.45975 22.0554 8.50103 22.0444 8.53904 22.025C8.57706 22.0056 8.61105 21.9784 8.639 21.9448C8.66695 21.9112 8.68831 21.872 8.7018 21.8295C8.7153 21.787 8.72066 21.742 8.71757 21.6973C8.71448 21.6525 8.70301 21.6089 8.68382 21.569C8.66464 21.529 8.63814 21.4936 8.60587 21.4647C8.57361 21.4358 8.53625 21.4141 8.49598 21.4009C8.45571 21.3876 8.41336 21.3831 8.37143 21.3876C6.23432 21.5545 3.01608 21.2314 3.01608 21.2314C3.00564 21.2302 2.99515 21.2295 2.98464 21.2294ZM10.6176 21.2813C10.5357 21.2814 10.4571 21.3153 10.3983 21.376C10.3395 21.4367 10.3051 21.5193 10.3025 21.6064C10.2999 21.6936 10.3291 21.7784 10.3841 21.843C10.4391 21.9075 10.5156 21.9468 10.5973 21.9526C10.5973 21.9526 14.2921 22.2847 16.5364 22.1094C16.5785 22.1073 16.6197 22.0962 16.6577 22.0768C16.6958 22.0575 16.7297 22.0302 16.7577 21.9966C16.7857 21.963 16.807 21.9238 16.8205 21.8813C16.834 21.8388 16.8394 21.7939 16.8363 21.7491C16.8332 21.7044 16.8217 21.6608 16.8025 21.6208C16.7833 21.5809 16.7568 21.5454 16.7246 21.5165C16.6923 21.4877 16.6549 21.466 16.6147 21.4527C16.5744 21.4395 16.5321 21.4349 16.4901 21.4394C14.3564 21.6061 10.6491 21.2832 10.6491 21.2832C10.6386 21.282 10.6281 21.2814 10.6176 21.2813Z" fill="black"/>
</svg>
